# xmcd
#
# Track frame offsets:
#	182
#	13272
#	27107
#	36327
#	47020
#	56382
#	65957
#	79057
#	92627
#	108100
#	120307
#	133335
#	144235
#	156165
#	164735
#	174407
#
# Disc length: 2452
#
# Revision: 2
# Processed by: cddbd v1.5.1PL0 Copyright (c) Steve Scherf et al.
# Submitted via: ExactAudioCopy v0.95a3
# Normalized: r0:DSETVAR1,TDELIM( - ),TSWAP
#
DISCID=d6099210
DTITLE=Various Artist - 16 all time country greats 01
DYEAR=1900
DGENRE=Country
TTITLE0=kenny rogers - ruby
TTITLE1=freddy fender - baby i don't want to love me
TTITLE2=frankie laine - rawhide
TTITLE3=waylon jennings - sally was a good girl
TTITLE4=conway twitty - this road that i walk
TTITLE5=ned miller - from a jack to a king
TTITLE6=lynn anderson - rose garden
TTITLE7=willie nelson - the last letter
TTITLE8=anne murray - there goes my everything
TTITLE9=johnny cash - i walk the line
TTITLE10=don williams - where do we go from there
TTITLE11=george jones - tender years
TTITLE12=dolly parton - making believe
TTITLE13=sandy posey - born a woman
TTITLE14=barbra mandrell - release me
TTITLE15=flat and scruggs - foggy mountain breakdown
EXTD=
EXTT0=
EXTT1=
EXTT2=
EXTT3=
EXTT4=
EXTT5=
EXTT6=
EXTT7=
EXTT8=
EXTT9=
EXTT10=
EXTT11=
EXTT12=
EXTT13=
EXTT14=
EXTT15=
PLAYORDER=
